<?xml version="1.0" encoding="UTF-8"?>
<svg id="Layer_1" xmlns="http://www.w3.org/2000/svg" version="1.1" viewBox="0 0 200 180">
  <!-- Generator: Adobe Illustrator 30.0.0, SVG Export Plug-In . SVG Version: 2.1.1 Build 123)  -->
  <defs>
    <style>
      .st0 {
        fill: #111;
      }
    </style>
  </defs>
  <g>
    <path class="st0" d="M1.97,168.12v11.53H0v-15.18h2.5l5.86,12.59h.21l5.86-12.59h2.58v15.18h-2.05v-11.53h-.16l-5.43,11.53h-1.88l-5.36-11.53h-.16Z"/>
    <path class="st0" d="M27.25,175.35l-1.72,4.3h-2.2l6.34-15.18h2.15l6.32,15.18h-2.18l-1.74-4.3h-6.98ZM30.8,166.87h-.14l-2.76,6.86h5.66l-2.77-6.86h0Z"/>
    <path class="st0" d="M46.55,167.73v11.92h-2.08v-15.18h2.02l9.45,11.94h.16v-11.94h2.08v15.18h-2.06l-9.38-11.92h-.18Z"/>
    <path class="st0" d="M68.42,175.35l-1.72,4.3h-2.2l6.34-15.18h2.15l6.32,15.18h-2.18l-1.74-4.3h-6.98ZM71.97,166.87h-.14l-2.76,6.86h5.66l-2.77-6.86h0Z"/>
    <path class="st0" d="M92.31,173.7v-1.63h6.58v1.63c0,1.25-.3,2.34-.9,3.26-.6.92-1.44,1.64-2.5,2.15-1.07.5-2.28.76-3.64.76-1.54,0-2.88-.32-4.02-.95-1.17-.64-2.08-1.55-2.72-2.72s-.96-2.54-.96-4.13.32-2.99.97-4.16c.64-1.17,1.53-2.07,2.66-2.7,1.14-.63,2.44-.94,3.92-.94.9,0,1.74.12,2.53.35s1.5.58,2.12,1.02c.62.44,1.14.96,1.55,1.57.41.6.7,1.28.86,2.01h-2.15c-.38-1.02-.98-1.82-1.8-2.37-.88-.58-1.91-.87-3.12-.87-1.02,0-1.94.23-2.78.7-.86.48-1.54,1.19-2.03,2.1-.49.92-.73,2.01-.73,3.29s.25,2.41.75,3.32c.5.9,1.18,1.58,2.03,2.05s1.82.71,2.89.71c.99,0,1.86-.19,2.6-.57.74-.37,1.32-.89,1.74-1.55s.64-1.44.66-2.33h-4.54,0Z"/>
    <path class="st0" d="M116.62,178.02v1.63h-10.54v-15.18h10.42v1.63h-8.34v5.07h7.78v1.63h-7.78v5.21h8.45Z"/>
    <path class="st0" d="M125.85,168.12v11.53h-1.97v-15.18h2.5l5.86,12.59h.21l5.86-12.59h2.58v15.18h-2.05v-11.53h-.16l-5.43,11.53h-1.88l-5.36-11.53h-.16Z"/>
    <path class="st0" d="M159.23,178.02v1.63h-10.54v-15.18h10.42v1.63h-8.34v5.07h7.78v1.63h-7.78v5.21h8.45Z"/>
    <path class="st0" d="M168.58,167.73v11.92h-2.08v-15.18h2.02l9.45,11.94h.16v-11.94h2.08v15.18h-2.06l-9.38-11.92h-.18Z"/>
    <path class="st0" d="M194.58,166.1v13.55h-2.08v-13.55h-5.44v-1.63h12.94v1.63h-5.42Z"/>
  </g>
  <g>
    <path class="st0" d="M155.21,143.59H44.59c-.52,0-.98-.29-1.2-.76-.22-.46-.17-1.01.15-1.41L153.19,2.1H43.86V.14h110.62c.52,0,.98.29,1.2.76.22.46.17,1.01-.15,1.41L45.88,141.62h109.33v1.96Z"/>
    <rect class="st0" x="98.55" y="16.19" width="1.96" height="111.36"/>
  </g>
</svg>